<svg width="312" height="30" viewBox="0 0 312 30" fill="none" xmlns="http://www.w3.org/2000/svg">
<path d="M21.5352 4.42969L20.126 15.0166L18.0483 7.28418L12.502 7.9165L13.2427 25.9648L17.7231 28.2593L3.28809 29.6323L8.54541 25.8203L9.4668 8.09717L3.73975 7.88037L1.51758 14.4565L0.812988 4.73682L21.5352 4.42969ZM39.1032 17.456C39.1032 15.3593 38.6716 13.83 37.8082 12.868C36.9449 11.8813 35.7239 11.388 34.1452 11.388C33.5779 11.388 33.0106 11.499 32.4432 11.721C31.8759 11.9183 31.3332 12.202 30.8152 12.572C30.3219 12.9173 29.8532 13.3243 29.4092 13.793C28.9652 14.237 28.5706 14.718 28.2252 15.236V28.704C27.8799 28.9013 27.4236 29.037 26.8562 29.111C26.3136 29.2097 25.7956 29.259 25.3022 29.259V1.065C25.7216 0.842998 26.1779 0.682665 26.6712 0.584C27.1892 0.485333 27.7072 0.435999 28.2252 0.435999V13.09C28.5706 12.6707 28.9899 12.239 29.4832 11.795C29.9766 11.351 30.5316 10.944 31.1482 10.574C31.7649 10.204 32.4309 9.908 33.1462 9.686C33.8862 9.43933 34.6756 9.316 35.5142 9.316C37.5122 9.316 39.0909 9.92033 40.2502 11.129C41.4342 12.3377 42.0262 14.0643 42.0262 16.309V28.704C41.6809 28.9013 41.2246 29.037 40.6572 29.111C40.1146 29.2097 39.5966 29.259 39.1032 29.259V17.456ZM50.4148 19.454C50.4888 20.786 50.7231 21.9577 51.1178 22.969C51.5371 23.9557 52.0675 24.782 52.7088 25.448C53.3501 26.114 54.0901 26.6197 54.9288 26.965C55.7921 27.2857 56.7048 27.446 57.6668 27.446C58.8755 27.446 59.9115 27.2857 60.7748 26.965C61.6628 26.6443 62.4645 26.1387 63.1798 25.448C63.5251 25.522 63.7595 25.7563 63.8828 26.151C63.7101 26.4223 63.4265 26.7553 63.0318 27.15C62.6618 27.5447 62.1561 27.927 61.5148 28.297C60.8981 28.667 60.1458 28.9753 59.2578 29.222C58.3945 29.4933 57.3831 29.629 56.2238 29.629C54.9905 29.629 53.8435 29.407 52.7828 28.963C51.7221 28.519 50.7971 27.8777 50.0078 27.039C49.2185 26.2003 48.5895 25.1643 48.1208 23.931C47.6768 22.6977 47.4548 21.304 47.4548 19.75C47.4548 18.3193 47.7015 16.975 48.1948 15.717C48.6881 14.4343 49.3541 13.3243 50.1928 12.387C51.0561 11.4497 52.0551 10.7097 53.1898 10.167C54.3491 9.59967 55.5825 9.316 56.8898 9.316C58.2958 9.316 59.4551 9.55033 60.3678 10.019C61.2805 10.4877 61.9958 11.092 62.5138 11.832C63.0565 12.572 63.4265 13.386 63.6238 14.274C63.8458 15.162 63.9568 16.0253 63.9568 16.864C63.7595 17.16 63.4881 17.419 63.1428 17.641C62.8221 17.863 62.4645 18.0357 62.0698 18.159L50.4148 19.454ZM55.9278 10.981C55.1631 10.981 54.4478 11.1167 53.7818 11.388C53.1158 11.6593 52.5361 12.0787 52.0428 12.646C51.5495 13.2133 51.1425 13.941 50.8218 14.829C50.5258 15.717 50.3655 16.79 50.3408 18.048L60.7748 16.975C60.7995 16.8517 60.8118 16.7283 60.8118 16.605C60.8118 16.4817 60.8118 16.3707 60.8118 16.272C60.8118 15.5073 60.7131 14.8043 60.5158 14.163C60.3185 13.5217 60.0101 12.9667 59.5908 12.498C59.1961 12.0293 58.6905 11.6593 58.0738 11.388C57.4818 11.1167 56.7665 10.981 55.9278 10.981ZM91.1089 16.2271C91.1089 18.2384 90.7957 20.0391 90.1694 21.6289C89.5552 23.2067 88.7121 24.5436 87.6401 25.6396C86.5682 26.7236 85.3156 27.5547 83.8823 28.1328C82.4611 28.7109 80.9435 29 79.3296 29C78.2697 29 77.2279 28.8735 76.2041 28.6206C75.1924 28.3677 74.2288 28.0003 73.3135 27.5186C72.4102 27.0368 71.5731 26.4526 70.8022 25.7661C70.0314 25.0675 69.369 24.2726 68.8149 23.3813C68.2609 22.478 67.8273 21.4904 67.5142 20.4185C67.201 19.3345 67.0444 18.1722 67.0444 16.9316C67.0444 15.0046 67.3576 13.228 67.9839 11.6021C68.6222 9.96403 69.5015 8.54883 70.6216 7.35645C71.7537 6.16406 73.0846 5.23063 74.6143 4.55615C76.1559 3.88167 77.8301 3.54443 79.6367 3.54443C81.1543 3.54443 82.6056 3.82747 83.9907 4.39355C85.3758 4.94759 86.5923 5.7666 87.6401 6.85059C88.7 7.93457 89.5431 9.26546 90.1694 10.8433C90.7957 12.409 91.1089 14.2036 91.1089 16.2271ZM86.249 16.5703C86.249 15.0768 85.9961 13.77 85.4902 12.6499C84.9844 11.5177 84.328 10.5723 83.521 9.81348C82.714 9.05469 81.7987 8.48861 80.7749 8.11523C79.7511 7.72982 78.7274 7.53711 77.7036 7.53711C76.5233 7.53711 75.4272 7.75391 74.4155 8.1875C73.4038 8.62109 72.5246 9.2474 71.7778 10.0664C71.0311 10.8734 70.4409 11.861 70.0073 13.0293C69.5858 14.1855 69.375 15.4863 69.375 16.9316C69.375 18.3047 69.5858 19.5272 70.0073 20.5991C70.4289 21.6711 71.007 22.5804 71.7417 23.3271C72.4764 24.0618 73.3315 24.6279 74.3071 25.0254C75.2948 25.4108 76.3426 25.6035 77.4507 25.6035C78.5708 25.6035 79.6548 25.4108 80.7026 25.0254C81.7625 24.6279 82.702 24.0498 83.521 23.291C84.3521 22.5202 85.0145 21.5747 85.5083 20.4546C86.0021 19.3224 86.249 18.0277 86.249 16.5703ZM95.6898 1.065C96.1091 0.842998 96.5655 0.682665 97.0588 0.584C97.5768 0.485333 98.0948 0.435999 98.6128 0.435999V28.704C98.2675 28.9013 97.8111 29.037 97.2438 29.111C96.7011 29.2097 96.1831 29.259 95.6898 29.259V1.065ZM119.205 26.447C118.934 26.817 118.601 27.187 118.206 27.557C117.812 27.927 117.331 28.26 116.763 28.556C116.221 28.852 115.592 29.0987 114.876 29.296C114.161 29.4933 113.359 29.592 112.471 29.592C111.386 29.592 110.35 29.3947 109.363 29C108.377 28.6053 107.489 28.0257 106.699 27.261C105.935 26.4717 105.318 25.5097 104.849 24.375C104.405 23.2157 104.183 21.8837 104.183 20.379C104.183 18.899 104.455 17.493 104.997 16.161C105.565 14.8043 106.329 13.6203 107.291 12.609C108.253 11.5977 109.376 10.796 110.658 10.204C111.966 9.612 113.359 9.316 114.839 9.316C115.826 9.316 116.665 9.43933 117.355 9.686C118.071 9.908 118.687 10.1917 119.205 10.537V1.065C119.625 0.842998 120.081 0.682665 120.574 0.584C121.092 0.485333 121.61 0.435999 122.128 0.435999V28.704C121.783 28.9013 121.327 29.037 120.759 29.111C120.217 29.2097 119.699 29.259 119.205 29.259V26.447ZM113.84 27.483C115.222 27.483 116.356 27.1623 117.244 26.521C118.157 25.855 118.811 25.0903 119.205 24.227V14.2C119.008 13.8053 118.749 13.423 118.428 13.053C118.132 12.6583 117.762 12.313 117.318 12.017C116.874 11.6963 116.356 11.4497 115.764 11.277C115.197 11.0797 114.556 10.981 113.84 10.981C113.026 10.981 112.225 11.1413 111.435 11.462C110.646 11.7827 109.931 12.276 109.289 12.942C108.673 13.5833 108.167 14.4097 107.772 15.421C107.402 16.4323 107.217 17.6163 107.217 18.973C107.217 20.527 107.415 21.8467 107.809 22.932C108.229 23.9927 108.747 24.8683 109.363 25.559C110.005 26.225 110.72 26.7183 111.509 27.039C112.299 27.335 113.076 27.483 113.84 27.483ZM147.277 10.4277C147.277 11.5358 147.115 12.4692 146.79 13.228C146.464 13.9868 146.031 14.6131 145.489 15.1069C144.947 15.6007 144.326 15.9862 143.628 16.2632C142.929 16.5402 142.213 16.7389 141.478 16.8594C142.405 17.1966 143.158 17.6242 143.736 18.1421C144.326 18.66 144.784 19.202 145.109 19.7681C145.447 20.3221 145.675 20.8701 145.796 21.4121C145.916 21.9421 145.977 22.3877 145.977 22.749C145.977 23.6523 145.844 24.4412 145.579 25.1157C145.314 25.7902 144.953 26.3683 144.495 26.8501C144.049 27.3319 143.526 27.7293 142.923 28.0425C142.321 28.3556 141.677 28.6086 140.99 28.8013C140.316 28.9819 139.617 29.1084 138.895 29.1807C138.184 29.2529 137.491 29.2891 136.817 29.2891C136.588 29.2891 136.353 29.283 136.112 29.271C135.883 29.271 135.594 29.259 135.245 29.2349C134.896 29.2228 134.456 29.1987 133.926 29.1626C133.408 29.1265 132.74 29.0783 131.921 29.0181C131.102 28.9578 130.108 28.8856 128.94 28.8013C127.772 28.7049 126.375 28.5965 124.749 28.4761L129.121 25.7842L130.403 6.68799L125.67 3.6167C127.898 3.64079 129.849 3.66488 131.523 3.68896C133.21 3.71305 134.631 3.73714 135.787 3.76123C137.136 3.78532 138.292 3.80941 139.256 3.8335C140.195 3.8335 141.141 3.97803 142.092 4.26709C143.056 4.54411 143.917 4.95964 144.676 5.51367C145.447 6.06771 146.073 6.76025 146.555 7.59131C147.036 8.41032 147.277 9.35579 147.277 10.4277ZM142.508 10.5361C142.508 10.4277 142.49 10.241 142.454 9.97607C142.43 9.69906 142.345 9.39193 142.201 9.05469C142.068 8.7054 141.857 8.34408 141.568 7.9707C141.279 7.58529 140.876 7.236 140.358 6.92285C139.84 6.6097 139.184 6.35075 138.389 6.146C137.606 5.9292 136.648 5.81478 135.516 5.80273C134.914 5.80273 134.324 5.83887 133.746 5.91113V15.9019C134.059 15.9259 134.372 15.938 134.685 15.938C134.998 15.938 135.275 15.938 135.516 15.938C136.672 15.938 137.648 15.8236 138.443 15.5947C139.238 15.3659 139.894 15.0708 140.412 14.7095C140.93 14.3481 141.327 13.9567 141.604 13.5352C141.894 13.1016 142.104 12.686 142.237 12.2886C142.369 11.8791 142.448 11.5177 142.472 11.2046C142.496 10.8914 142.508 10.6686 142.508 10.5361ZM135.625 17.8711C135.36 17.8711 135.058 17.8711 134.721 17.8711C134.384 17.8711 134.059 17.8831 133.746 17.9072V26.5972C134.288 26.6935 134.787 26.7598 135.245 26.7959C135.703 26.832 136.16 26.8501 136.618 26.8501C137.232 26.8501 137.841 26.7839 138.443 26.6514C139.057 26.5068 139.605 26.266 140.087 25.9287C140.581 25.5794 140.978 25.1157 141.279 24.5376C141.58 23.9595 141.731 23.2368 141.731 22.3696C141.731 21.924 141.629 21.4362 141.424 20.9062C141.219 20.3763 140.882 19.8885 140.412 19.4429C139.942 18.9972 139.316 18.6239 138.533 18.3228C137.75 18.0216 136.781 17.8711 135.625 17.8711ZM153.361 18.677C153.361 20.231 153.546 21.5877 153.916 22.747C154.31 23.9063 154.816 24.8807 155.433 25.67C156.074 26.4347 156.802 27.0143 157.616 27.409C158.454 27.8037 159.33 28.001 160.243 28.001C162.216 28.001 163.721 27.3473 164.757 26.04C165.793 24.708 166.311 22.71 166.311 20.046C166.311 18.7633 166.163 17.567 165.867 16.457C165.571 15.347 165.127 14.385 164.535 13.571C163.967 12.757 163.264 12.1157 162.426 11.647C161.587 11.1783 160.625 10.944 159.54 10.944C158.75 10.944 157.986 11.092 157.246 11.388C156.506 11.684 155.852 12.1527 155.285 12.794C154.717 13.4107 154.249 14.2123 153.879 15.199C153.533 16.161 153.361 17.3203 153.361 18.677ZM150.253 19.824C150.253 18.3193 150.524 16.9257 151.067 15.643C151.609 14.3357 152.337 13.2257 153.25 12.313C154.187 11.3757 155.272 10.648 156.506 10.13C157.764 9.58733 159.096 9.316 160.502 9.316C162.031 9.316 163.351 9.575 164.461 10.093C165.595 10.611 166.52 11.3017 167.236 12.165C167.976 13.0283 168.518 14.0397 168.864 15.199C169.234 16.3583 169.419 17.5793 169.419 18.862C169.419 20.3667 169.184 21.7727 168.716 23.08C168.247 24.3873 167.569 25.5343 166.681 26.521C165.817 27.483 164.757 28.2477 163.499 28.815C162.241 29.3823 160.81 29.666 159.207 29.666C158.023 29.666 156.888 29.444 155.803 29C154.717 28.556 153.755 27.9147 152.917 27.076C152.103 26.2373 151.449 25.2137 150.956 24.005C150.487 22.7717 150.253 21.378 150.253 19.824ZM176.594 18.677C176.594 20.231 176.779 21.5877 177.149 22.747C177.544 23.9063 178.049 24.8807 178.666 25.67C179.307 26.4347 180.035 27.0143 180.849 27.409C181.688 27.8037 182.563 28.001 183.476 28.001C185.449 28.001 186.954 27.3473 187.99 26.04C189.026 24.708 189.544 22.71 189.544 20.046C189.544 18.7633 189.396 17.567 189.1 16.457C188.804 15.347 188.36 14.385 187.768 13.571C187.201 12.757 186.498 12.1157 185.659 11.647C184.82 11.1783 183.858 10.944 182.773 10.944C181.984 10.944 181.219 11.092 180.479 11.388C179.739 11.684 179.085 12.1527 178.518 12.794C177.951 13.4107 177.482 14.2123 177.112 15.199C176.767 16.161 176.594 17.3203 176.594 18.677ZM173.486 19.824C173.486 18.3193 173.757 16.9257 174.3 15.643C174.843 14.3357 175.57 13.2257 176.483 12.313C177.42 11.3757 178.506 10.648 179.739 10.13C180.997 9.58733 182.329 9.316 183.735 9.316C185.264 9.316 186.584 9.575 187.694 10.093C188.829 10.611 189.754 11.3017 190.469 12.165C191.209 13.0283 191.752 14.0397 192.097 15.199C192.467 16.3583 192.652 17.5793 192.652 18.862C192.652 20.3667 192.418 21.7727 191.949 23.08C191.48 24.3873 190.802 25.5343 189.914 26.521C189.051 27.483 187.99 28.2477 186.732 28.815C185.474 29.3823 184.043 29.666 182.44 29.666C181.256 29.666 180.121 29.444 179.036 29C177.951 28.556 176.989 27.9147 176.15 27.076C175.336 26.2373 174.682 25.2137 174.189 24.005C173.72 22.7717 173.486 21.378 173.486 19.824ZM198.125 1.065C198.545 0.842998 199.001 0.682665 199.494 0.584C200.012 0.485333 200.53 0.435999 201.048 0.435999V18.714C201.788 18.27 202.541 17.7397 203.305 17.123C204.095 16.5063 204.872 15.828 205.636 15.088C206.426 14.348 207.203 13.5587 207.967 12.72C208.732 11.8567 209.46 10.981 210.15 10.093C210.397 9.945 210.73 9.834 211.149 9.76C211.569 9.686 211.988 9.649 212.407 9.649C212.827 9.649 213.172 9.686 213.443 9.76C212.95 10.426 212.346 11.129 211.63 11.869C210.915 12.609 210.163 13.3367 209.373 14.052C208.609 14.7427 207.832 15.4087 207.042 16.05C206.253 16.6913 205.525 17.2463 204.859 17.715C205.501 17.8383 206.043 18.1467 206.487 18.64C206.956 19.1333 207.486 19.7747 208.078 20.564L211.149 24.671C211.569 25.2383 211.939 25.7317 212.259 26.151C212.58 26.5457 212.876 26.9033 213.147 27.224C213.419 27.52 213.665 27.779 213.887 28.001C214.109 28.223 214.344 28.4203 214.59 28.593V28.778C214.27 28.9507 213.801 29.074 213.184 29.148C212.568 29.222 212.062 29.259 211.667 29.259C211.347 29.1357 210.977 28.8643 210.557 28.445C210.163 28.001 209.62 27.3103 208.929 26.373L205.784 22.044C205.439 21.5753 205.131 21.1683 204.859 20.823C204.613 20.4777 204.366 20.2063 204.119 20.009C203.897 19.8117 203.663 19.6637 203.416 19.565C203.194 19.4663 202.935 19.417 202.639 19.417C202.343 19.417 202.06 19.4787 201.788 19.602C201.517 19.7007 201.27 19.824 201.048 19.972V28.704C200.703 28.9013 200.247 29.037 199.679 29.111C199.137 29.2097 198.619 29.259 198.125 29.259V1.065ZM225.631 4.53809C226.45 4.53809 227.233 4.61637 227.98 4.77295C228.739 4.91748 229.443 5.11621 230.094 5.36914C230.744 5.61003 231.334 5.88704 231.864 6.2002C232.394 6.51335 232.846 6.8265 233.219 7.13965L237.917 3.90576L232.515 14.2759L232.099 8.83789C231.75 8.59701 231.37 8.38623 230.961 8.20557C230.563 8.01286 230.16 7.85628 229.75 7.73584C229.353 7.60335 228.968 7.50098 228.594 7.42871C228.221 7.3444 227.89 7.27816 227.601 7.22998C227.312 7.1818 227.077 7.15169 226.896 7.13965C226.727 7.11556 226.637 7.10352 226.625 7.10352C225.806 7.10352 225.119 7.19385 224.565 7.37451C224.011 7.55518 223.56 7.79004 223.21 8.0791C222.873 8.36816 222.626 8.69938 222.47 9.07275C222.325 9.43408 222.253 9.80143 222.253 10.1748C222.253 10.9336 222.41 11.578 222.723 12.1079C223.036 12.6258 223.512 13.0895 224.15 13.499C224.788 13.9085 225.601 14.2939 226.589 14.6553C227.576 15.0046 228.739 15.384 230.076 15.7935C230.883 16.0464 231.641 16.3896 232.352 16.8232C233.075 17.2448 233.701 17.7446 234.231 18.3228C234.761 18.8888 235.176 19.5272 235.478 20.2378C235.791 20.9364 235.947 21.6891 235.947 22.4961C235.947 23.4355 235.815 24.2726 235.55 25.0073C235.285 25.73 234.93 26.3683 234.484 26.9224C234.05 27.4644 233.544 27.9281 232.966 28.3135C232.388 28.6868 231.786 28.988 231.16 29.2168C230.545 29.4577 229.919 29.6263 229.281 29.7227C228.654 29.8311 228.064 29.8853 227.51 29.8853C225.884 29.8853 224.409 29.6082 223.084 29.0542C221.759 28.5002 220.525 27.7414 219.38 26.7778L214.683 29.9937L219.922 20.7075C220.067 21.5747 220.32 22.4118 220.681 23.2188C221.055 24.0137 221.512 24.7243 222.054 25.3506C222.596 25.9769 223.222 26.4767 223.933 26.8501C224.644 27.2235 225.421 27.4102 226.264 27.4102C226.938 27.4102 227.552 27.3078 228.106 27.103C228.673 26.8983 229.154 26.6273 229.552 26.29C229.949 25.9408 230.256 25.5433 230.473 25.0977C230.702 24.64 230.816 24.1642 230.816 23.6704C230.816 22.9839 230.624 22.3937 230.238 21.8999C229.853 21.394 229.347 20.9484 228.721 20.563C228.094 20.1655 227.378 19.8042 226.571 19.479C225.776 19.1418 224.957 18.7985 224.114 18.4492C223.271 18.0999 222.446 17.7145 221.639 17.293C220.844 16.8714 220.133 16.3776 219.507 15.8115C218.881 15.2334 218.375 14.5589 217.989 13.7881C217.604 13.0173 217.411 12.1079 217.411 11.0601C217.411 10.2531 217.568 9.46419 217.881 8.69336C218.206 7.91048 218.7 7.21191 219.362 6.59766C220.037 5.9834 220.892 5.48958 221.928 5.11621C222.964 4.73079 224.198 4.53809 225.631 4.53809ZM238.243 11.203C238.44 10.9317 238.748 10.685 239.168 10.463C239.612 10.2163 240.093 10.093 240.611 10.093H241.795V4.765C242.189 4.44433 242.646 4.21 243.164 4.062C243.706 3.88933 244.224 3.803 244.718 3.803V10.093H251.97C251.945 10.5123 251.822 10.87 251.6 11.166C251.402 11.4373 251.143 11.573 250.823 11.573H244.718V23.709C244.718 24.4983 244.804 25.1397 244.977 25.633C245.174 26.1017 245.433 26.4717 245.754 26.743C246.074 27.0143 246.444 27.1993 246.864 27.298C247.283 27.3967 247.715 27.446 248.159 27.446C248.973 27.446 249.651 27.2857 250.194 26.965C250.736 26.6443 251.18 26.3113 251.526 25.966C251.871 26.0647 252.093 26.2743 252.192 26.595C252.068 26.7923 251.871 27.0513 251.6 27.372C251.328 27.6927 250.971 28.0133 250.527 28.334C250.083 28.63 249.552 28.889 248.936 29.111C248.319 29.333 247.628 29.444 246.864 29.444C246.173 29.444 245.519 29.3577 244.903 29.185C244.286 29.0123 243.743 28.7287 243.275 28.334C242.831 27.9393 242.473 27.409 242.202 26.743C241.93 26.077 241.795 25.2507 241.795 24.264V11.573H238.243V11.203ZM258.001 18.677C258.001 20.231 258.186 21.5877 258.556 22.747C258.951 23.9063 259.457 24.8807 260.073 25.67C260.715 26.4347 261.442 27.0143 262.256 27.409C263.095 27.8037 263.971 28.001 264.883 28.001C266.857 28.001 268.361 27.3473 269.397 26.04C270.433 24.708 270.951 22.71 270.951 20.046C270.951 18.7633 270.803 17.567 270.507 16.457C270.211 15.347 269.767 14.385 269.175 13.571C268.608 12.757 267.905 12.1157 267.066 11.647C266.228 11.1783 265.266 10.944 264.18 10.944C263.391 10.944 262.626 11.092 261.886 11.388C261.146 11.684 260.493 12.1527 259.925 12.794C259.358 13.4107 258.889 14.2123 258.519 15.199C258.174 16.161 258.001 17.3203 258.001 18.677ZM254.893 19.824C254.893 18.3193 255.165 16.9257 255.707 15.643C256.25 14.3357 256.978 13.2257 257.89 12.313C258.828 11.3757 259.913 10.648 261.146 10.13C262.404 9.58733 263.736 9.316 265.142 9.316C266.672 9.316 267.991 9.575 269.101 10.093C270.236 10.611 271.161 11.3017 271.876 12.165C272.616 13.0283 273.159 14.0397 273.504 15.199C273.874 16.3583 274.059 17.5793 274.059 18.862C274.059 20.3667 273.825 21.7727 273.356 23.08C272.888 24.3873 272.209 25.5343 271.321 26.521C270.458 27.483 269.397 28.2477 268.139 28.815C266.881 29.3823 265.451 29.666 263.847 29.666C262.663 29.666 261.529 29.444 260.443 29C259.358 28.556 258.396 27.9147 257.557 27.076C256.743 26.2373 256.09 25.2137 255.596 24.005C255.128 22.7717 254.893 21.378 254.893 19.824ZM279.459 10.315C280.273 9.89567 281.198 9.686 282.234 9.686V15.014C282.48 14.274 282.813 13.571 283.233 12.905C283.652 12.2143 284.145 11.61 284.713 11.092C285.305 10.574 285.958 10.167 286.674 9.871C287.389 9.55033 288.178 9.39 289.042 9.39C289.708 9.39 290.287 9.501 290.781 9.723C291.274 9.92033 291.681 10.1793 292.002 10.5C292.322 10.796 292.557 11.1413 292.705 11.536C292.877 11.9307 292.976 12.313 293.001 12.683C292.803 13.0283 292.458 13.3243 291.965 13.571C291.496 13.8177 291.027 13.9657 290.559 14.015C290.435 13.349 290.164 12.757 289.745 12.239C289.325 11.721 288.622 11.462 287.636 11.462C286.92 11.462 286.254 11.6717 285.638 12.091C285.046 12.5103 284.515 13.1023 284.047 13.867C283.578 14.607 283.196 15.495 282.9 16.531C282.628 17.567 282.456 18.7017 282.382 19.935V28.704C282.036 28.9013 281.58 29.037 281.013 29.111C280.47 29.2097 279.952 29.259 279.459 29.259V10.315ZM297.852 19.454C297.926 20.786 298.161 21.9577 298.555 22.969C298.975 23.9557 299.505 24.782 300.146 25.448C300.788 26.114 301.528 26.6197 302.366 26.965C303.23 27.2857 304.142 27.446 305.104 27.446C306.313 27.446 307.349 27.2857 308.212 26.965C309.1 26.6443 309.902 26.1387 310.617 25.448C310.963 25.522 311.197 25.7563 311.32 26.151C311.148 26.4223 310.864 26.7553 310.469 27.15C310.099 27.5447 309.594 27.927 308.952 28.297C308.336 28.667 307.583 28.9753 306.695 29.222C305.832 29.4933 304.821 29.629 303.661 29.629C302.428 29.629 301.281 29.407 300.22 28.963C299.16 28.519 298.235 27.8777 297.445 27.039C296.656 26.2003 296.027 25.1643 295.558 23.931C295.114 22.6977 294.892 21.304 294.892 19.75C294.892 18.3193 295.139 16.975 295.632 15.717C296.126 14.4343 296.792 13.3243 297.63 12.387C298.494 11.4497 299.493 10.7097 300.627 10.167C301.787 9.59967 303.02 9.316 304.327 9.316C305.733 9.316 306.893 9.55033 307.805 10.019C308.718 10.4877 309.433 11.092 309.951 11.832C310.494 12.572 310.864 13.386 311.061 14.274C311.283 15.162 311.394 16.0253 311.394 16.864C311.197 17.16 310.926 17.419 310.58 17.641C310.26 17.863 309.902 18.0357 309.507 18.159L297.852 19.454ZM303.365 10.981C302.601 10.981 301.885 11.1167 301.219 11.388C300.553 11.6593 299.974 12.0787 299.48 12.646C298.987 13.2133 298.58 13.941 298.259 14.829C297.963 15.717 297.803 16.79 297.778 18.048L308.212 16.975C308.237 16.8517 308.249 16.7283 308.249 16.605C308.249 16.4817 308.249 16.3707 308.249 16.272C308.249 15.5073 308.151 14.8043 307.953 14.163C307.756 13.5217 307.448 12.9667 307.028 12.498C306.634 12.0293 306.128 11.6593 305.511 11.388C304.919 11.1167 304.204 10.981 303.365 10.981Z" fill="black"/>
</svg>
